<?xml version="1.0" ?>
<!DOCTYPE svg  PUBLIC '-//W3C//DTD SVG 1.1//EN'  'http://www.w3.org/Graphics/SVG/1.1/DTD/svg11.dtd'>
<!-- Uploaded to: SVG Repo, www.svgrepo.com, Generator: SVG Repo Mixer Tools -->
<svg fill="#000000" width="800px" height="800px" viewBox="0 0 50 50" enable-background="new 0 0 50 50" version="1.1" xml:space="preserve" xmlns="http://www.w3.org/2000/svg" xmlns:xlink="http://www.w3.org/1999/xlink">
<g id="Layer_23"/>
<g id="Layer_22"/>
<g id="Layer_21"/>
<g id="Layer_20"/>
<g id="Layer_19"/>
<g id="Layer_18"/>
<g id="Layer_17"/>
<g id="Layer_16"/>
<g id="Layer_15"/>
<g id="Layer_14"/>
<g id="Layer_13"/>
<g id="Layer_12"/>
<g id="Layer_11"/>
<g id="Layer_10"/>
<g id="Layer_9"/>
<g id="Layer_8"/>
<g id="Layer_7"/>
<g id="Layer_6">
<path clip-rule="evenodd" d="M27.593,20.314c0.464-2.49-0.437-4.486-2.516-5.934l-1.544,2.221   c1.047,0.73,1.585,1.553,1.456,2.838c-0.879-0.11-1.768-0.044-2.57,0.217c-2.685,0.875-2.95,2.822-3.349,5.09   c-1.032,5.839-3.887,11.802-7.399,16.862c-1.955,2.818-4.241,5.402-6.444,8.029c3.323-1.372,6.57-2.55,9.626-4.482   c6.478-4.095,12.585-10.897,14.892-17.402c0.753-2.125,0.888-4.156-0.473-5.955C28.812,21.188,28.255,20.702,27.593,20.314    M37.858,5.33C37.045,2.221,34.986,0.454,31.796,0l-0.381,2.676c1.948,0.277,3.149,1.138,3.736,3.023   c-1.132,0.355-2.186,0.926-3.033,1.767c-2.414,2.399-1.623,4.61-0.8,7.367c1.749,5.822,2.219,12.323,1.796,18.391   c-0.397,5.7-1.577,11.077-2.915,16.776c4.222-4.891,7.384-8.778,9.815-13.929c3.098-6.56,6.775-21.516,3.438-27.55   C42.298,6.429,40.167,5.397,37.858,5.33z" fill-rule="evenodd"/>
</g>
<g id="Layer_5"/>
<g id="Layer_4"/>
<g id="Layer_3"/>
<g id="Layer_2"/>
</svg>