<?xml version="1.0" encoding="iso-8859-1"?>
<!-- Uploaded to: SVG Repo, www.svgrepo.com, Generator: SVG Repo Mixer Tools -->
<svg fill="#000000" height="800px" width="800px" version="1.1" id="Layer_1" xmlns="http://www.w3.org/2000/svg" xmlns:xlink="http://www.w3.org/1999/xlink" 
	 viewBox="0 0 512 512" xml:space="preserve">
<g>
	<g>
		<g>
			<path d="M486.4,256.12h-8.841c-3.157-71.791-45.38-119.467-85.026-119.467c-1.758,0-3.516,0.119-5.265,0.299
				c-16.41-26.573-40.055-42.965-63.002-42.965c-22.972,0-46.66,16.435-63.061,43.068c-1.741-0.179-3.473-0.401-5.205-0.401
				c-1.758,0-3.516,0.119-5.265,0.299c-16.41-26.573-40.055-42.965-63.002-42.965c-22.972,0-46.66,16.435-63.061,43.068
				c-1.741-0.179-3.473-0.401-5.205-0.401c-39.646,0-81.869,47.676-85.026,119.467H25.6c-14.114,0-25.6,11.486-25.6,25.6
				c0,11.426,7.578,21.018,17.929,24.294c2.739,12.578,12.339,22.63,24.738,25.822v9.617c0,21.623,3.994,40.457,12.928,61.065
				c4.079,9.412,13.329,15.497,23.561,15.497h80.623c10.231,0,19.482-6.084,23.552-15.488c1.638-3.755,3.098-7.45,4.403-11.11
				c1.306,3.661,2.765,7.356,4.395,11.102c4.079,9.412,13.329,15.497,23.561,15.497h80.623c10.232,0,19.482-6.084,23.552-15.488
				c1.638-3.755,3.098-7.45,4.403-11.11c1.306,3.661,2.765,7.356,4.395,11.102c4.079,9.412,13.329,15.497,23.561,15.497h80.623
				c10.232,0,19.482-6.084,23.552-15.488c8.943-20.617,12.937-39.45,12.937-61.073v-9.617c12.399-3.191,21.999-13.244,24.738-25.822
				C504.422,302.737,512,293.146,512,281.719C512,267.605,500.514,256.12,486.4,256.12z M384.939,154.709l1.997-0.444
				c1.92-0.333,3.797-0.546,5.598-0.546c26.769,0,65.007,36.369,68.079,102.4H341.154c-0.051-1.067-0.179-2.108-0.239-3.174
				c-0.102-1.681-0.23-3.345-0.375-5.001c-0.23-2.586-0.512-5.146-0.845-7.689c-0.222-1.732-0.452-3.456-0.725-5.154
				c-0.367-2.295-0.802-4.557-1.263-6.818c-0.367-1.818-0.708-3.644-1.126-5.419c-0.461-1.937-0.998-3.831-1.519-5.743
				c-0.538-1.954-1.041-3.942-1.638-5.845c-0.034-0.111-0.06-0.23-0.102-0.341C344.013,181.385,364.032,159.403,384.939,154.709z
				 M248.405,154.709l1.997-0.444c1.92-0.333,3.797-0.546,5.598-0.546c1.63,0,3.302,0.145,5.009,0.41l1.536,0.35
				c0.393,0.077,0.794,0.188,1.195,0.282c2.517,0.572,5.018,1.417,7.492,2.466c0.162,0.077,0.324,0.12,0.495,0.196
				c2.219,0.973,4.403,2.21,6.571,3.55c0.99,0.623,1.988,1.314,2.978,2.014c1.237,0.862,2.449,1.792,3.661,2.765
				c0.99,0.794,1.98,1.579,2.953,2.458c2.057,1.852,4.079,3.797,6.025,5.948c0.222,0.247,0.435,0.538,0.657,0.785
				c1.963,2.236,3.874,4.608,5.692,7.125c0.29,0.393,0.563,0.802,0.845,1.195c1.852,2.645,3.644,5.419,5.325,8.337
				c0.085,0.154,0.171,0.299,0.265,0.452c3.55,6.263,6.639,13.133,9.173,20.437l0.316,0.93c2.577,7.612,4.514,15.565,5.862,23.774
				c0.119,0.734,0.23,1.476,0.333,2.219c0.469,3.115,0.819,6.289,1.109,9.481c0.119,1.391,0.247,2.782,0.341,4.207
				c0.06,0.998,0.068,2.014,0.111,3.021H204.621c-0.051-1.067-0.179-2.108-0.239-3.174c-0.102-1.681-0.23-3.345-0.375-5.001
				c-0.23-2.586-0.512-5.146-0.845-7.689c-0.222-1.732-0.452-3.456-0.725-5.154c-0.367-2.295-0.802-4.557-1.263-6.818
				c-0.367-1.818-0.708-3.644-1.126-5.419c-0.461-1.937-0.998-3.831-1.519-5.743c-0.538-1.954-1.041-3.942-1.638-5.845
				c-0.034-0.111-0.06-0.23-0.102-0.341C207.479,181.385,227.499,159.403,248.405,154.709z M119.467,153.719
				c1.63,0,3.302,0.145,5.009,0.41l1.536,0.35c0.393,0.077,0.794,0.188,1.195,0.282c2.517,0.572,5.018,1.417,7.492,2.466
				c0.162,0.077,0.324,0.12,0.495,0.196c2.219,0.973,4.403,2.21,6.571,3.55c0.99,0.623,1.988,1.314,2.978,2.014
				c1.237,0.862,2.449,1.792,3.661,2.765c0.99,0.794,1.98,1.579,2.953,2.458c2.057,1.852,4.079,3.797,6.025,5.948
				c0.222,0.247,0.435,0.538,0.657,0.785c1.963,2.236,3.874,4.608,5.692,7.125c0.29,0.393,0.563,0.802,0.845,1.195
				c1.852,2.645,3.644,5.419,5.325,8.337c0.085,0.154,0.171,0.299,0.265,0.452c3.55,6.263,6.639,13.133,9.173,20.437l0.316,0.93
				c2.577,7.612,4.514,15.565,5.862,23.774c0.12,0.734,0.23,1.476,0.333,2.219c0.469,3.115,0.819,6.289,1.109,9.481
				c0.12,1.391,0.247,2.782,0.341,4.207c0.06,0.998,0.068,2.014,0.111,3.021H51.388C54.46,190.089,92.698,153.719,119.467,153.719z
				 M486.4,290.253H25.6c-4.71,0-8.533-3.823-8.533-8.533c0-4.71,3.823-8.533,8.533-8.533h8.533h153.6H204.8h119.467h17.067h136.533
				h8.533c4.71,0,8.533,3.823,8.533,8.533C494.933,286.43,491.11,290.253,486.4,290.253z"/>
			<path d="M105.5,172.736c-12.058,9.95-21.043,24.747-28.271,46.566c-1.476,4.471,0.947,9.301,5.419,10.786
				c0.896,0.29,1.792,0.427,2.688,0.427c3.584,0,6.912-2.261,8.098-5.845c6.178-18.637,13.457-30.95,22.929-38.767
				c3.635-3.004,4.156-8.371,1.152-12.015C114.52,170.27,109.152,169.732,105.5,172.736z"/>
			<path d="M219.181,230.089c0.896,0.29,1.792,0.427,2.688,0.427c3.584,0,6.912-2.261,8.098-5.845
				c6.178-18.637,13.457-30.95,22.929-38.767c3.635-3.004,4.156-8.371,1.152-12.015c-2.995-3.618-8.371-4.156-12.015-1.152
				c-12.058,9.95-21.043,24.747-28.271,46.566C212.286,223.774,214.71,228.604,219.181,230.089z"/>
			<path d="M355.715,230.089c0.896,0.29,1.792,0.427,2.688,0.427c3.584,0,6.912-2.261,8.098-5.845
				c6.178-18.637,13.457-30.95,22.929-38.767c3.635-3.004,4.156-8.371,1.152-12.015c-3.004-3.618-8.371-4.156-12.015-1.152
				c-12.058,9.95-21.043,24.747-28.271,46.566C348.82,223.774,351.243,228.604,355.715,230.089z"/>
		</g>
	</g>
</g>
</svg>