<?xml version="1.0" encoding="iso-8859-1"?>
<!-- Uploaded to: SVG Repo, www.svgrepo.com, Generator: SVG Repo Mixer Tools -->
<svg fill="#000000" height="800px" width="800px" version="1.1" id="Layer_1" xmlns="http://www.w3.org/2000/svg" xmlns:xlink="http://www.w3.org/1999/xlink" 
	 viewBox="0 0 512 512" xml:space="preserve">
<g>
	<g>
		<path d="M283.72,222.868c-12.309,0-29.714,6.227-41.384,14.806c-5.215,3.833-11.36,5.858-17.77,5.858
			c-5.619,0.001-11.084-1.597-15.806-4.618l-13.611-8.714v51.598l13.611-8.712c4.721-3.024,10.187-4.62,15.806-4.62
			c6.411,0,12.556,2.027,17.77,5.859c11.671,8.579,29.077,14.806,41.385,14.806c18.269,0,33.133-14.863,33.133-33.131
			C316.854,237.732,301.989,222.868,283.72,222.868z M289.264,261.544c-4.899,0-8.871-3.971-8.871-8.871
			c0-4.899,3.971-8.871,8.871-8.871c4.899,0,8.871,3.971,8.871,8.871C298.134,257.573,294.163,261.544,289.264,261.544z"/>
	</g>
</g>
<g>
	<g>
		<path d="M88.571,222.868c-12.309,0-29.714,6.227-41.385,14.806c-5.215,3.833-11.359,5.858-17.77,5.858
			c-5.619,0.001-11.084-1.597-15.805-4.619L0,230.2v51.598l13.611-8.712c4.721-3.024,10.186-4.62,15.805-4.62
			c6.411,0,12.556,2.027,17.77,5.859c11.672,8.579,29.077,14.806,41.385,14.806c18.269,0,33.131-14.863,33.131-33.131
			C121.703,237.732,106.841,222.868,88.571,222.868z M94.116,261.544c-4.899,0-8.871-3.971-8.871-8.871
			c0-4.899,3.971-8.871,8.871-8.871c4.898,0,8.871,3.971,8.871,8.871S99.015,261.544,94.116,261.544z"/>
	</g>
</g>
<g>
	<g>
		<path d="M196.125,362.575c-12.308,0-29.713,6.227-41.385,14.807c-5.213,3.832-11.359,5.858-17.769,5.858
			c-5.618,0-11.084-1.598-15.806-4.619l-13.611-8.713v51.598l13.611-8.712c4.722-3.024,10.187-4.619,15.804-4.619
			c6.411,0,12.556,2.025,17.77,5.857c11.672,8.58,29.078,14.807,41.386,14.807c18.269,0,33.131-14.863,33.131-33.131
			C229.258,377.44,214.394,362.575,196.125,362.575z M201.669,401.252c-4.899,0-8.871-3.971-8.871-8.871
			c0-4.899,3.971-8.871,8.871-8.871s8.871,3.971,8.871,8.871C210.539,397.28,206.568,401.252,201.669,401.252z"/>
	</g>
</g>
<g>
	<g>
		<path d="M183.928,83.16c-12.308,0-29.713,6.227-41.385,14.807c-5.213,3.832-11.359,5.858-17.769,5.858
			c-5.619,0-11.084-1.598-15.806-4.619l-13.611-8.713v51.598l13.611-8.712c4.721-3.025,10.186-4.622,15.804-4.622
			c6.411,0,12.556,2.026,17.77,5.857c11.672,8.58,29.077,14.807,41.385,14.807c18.269,0,33.133-14.863,33.133-33.131
			C217.061,98.022,202.198,83.16,183.928,83.16z M189.473,121.835c-4.899,0-8.871-3.971-8.871-8.871
			c0-4.898,3.971-8.871,8.871-8.871c4.899,0,8.871,3.971,8.871,8.871C198.343,117.864,194.372,121.835,189.473,121.835z"/>
	</g>
</g>
<g>
	<g>
		<path d="M379.076,83.16c-12.308,0-29.713,6.227-41.385,14.807c-5.213,3.832-11.359,5.858-17.77,5.858
			c-5.618,0-11.084-1.598-15.806-4.62l-13.611-8.712v51.598l13.611-8.712c4.723-3.025,10.187-4.622,15.806-4.622
			c6.411,0,12.556,2.026,17.77,5.857c11.672,8.58,29.077,14.807,41.385,14.807c18.269,0,33.131-14.863,33.131-33.131
			C412.207,98.022,397.345,83.16,379.076,83.16z M384.62,121.835c-4.899,0-8.871-3.971-8.871-8.871c0-4.898,3.972-8.871,8.871-8.871
			c4.899,0,8.871,3.971,8.871,8.871C393.491,117.864,389.519,121.835,384.62,121.835z"/>
	</g>
</g>
<g>
	<g>
		<path d="M391.273,362.575c-12.308,0-29.713,6.227-41.385,14.807c-5.213,3.832-11.359,5.858-17.77,5.858
			c-5.619,0-11.084-1.598-15.806-4.62l-13.611-8.712v51.598l13.611-8.712c4.722-3.024,10.186-4.619,15.805-4.619
			c6.411,0,12.556,2.026,17.77,5.857c11.672,8.58,29.077,14.807,41.385,14.807c18.269,0,33.131-14.863,33.131-33.131
			S409.543,362.575,391.273,362.575z M396.817,401.252c-4.899,0-8.871-3.971-8.871-8.871c0-4.899,3.971-8.871,8.871-8.871
			c4.899,0,8.871,3.971,8.871,8.871C405.687,397.28,401.716,401.252,396.817,401.252z"/>
	</g>
</g>
<g>
	<g>
		<path d="M478.869,222.868c-12.309,0-29.714,6.227-41.385,14.806c-5.215,3.833-11.359,5.858-17.77,5.858
			c-5.619,0.001-11.084-1.597-15.805-4.619l-13.611-8.713v51.598l13.611-8.713c4.721-3.022,10.186-4.619,15.805-4.619
			c6.411,0,12.556,2.027,17.77,5.859c11.672,8.579,29.077,14.806,41.385,14.806c18.269,0,33.131-14.863,33.131-33.131
			C512,237.732,497.137,222.868,478.869,222.868z M484.412,261.544c-4.899,0-8.871-3.971-8.871-8.871
			c0-4.899,3.971-8.871,8.871-8.871c4.899,0,8.871,3.971,8.871,8.871S489.311,261.544,484.412,261.544z"/>
	</g>
</g>
</svg>