<?xml version="1.0" encoding="utf-8"?><!-- Uploaded to: SVG Repo, www.svgrepo.com, Generator: SVG Repo Mixer Tools -->
<svg fill="#000000" width="800px" height="800px" viewBox="0 0 24 24" id="noodle-left-2" data-name="Flat Line" xmlns="http://www.w3.org/2000/svg" class="icon flat-line"><path id="primary" d="M3,9H6m5,0H21" style="fill: none; stroke: rgb(0, 0, 0); stroke-linecap: round; stroke-linejoin: round; stroke-width: 2;"></path><path id="primary-2" data-name="primary" d="M5.55,21c0-1.8,1-1.8,1-3.6s-1-1.81-1-3.61,1-1.8,1-3.6-1-1.79-1-3.59a3.45,3.45,0,0,1,.57-1.95" style="fill: none; stroke: rgb(0, 0, 0); stroke-linecap: round; stroke-linejoin: round; stroke-width: 2;"></path><path id="primary-3" data-name="primary" d="M9.54,21c0-1.8,1-1.8,1-3.6s-1-1.81-1-3.61,1-1.8,1-3.6-1-1.79-1-3.59a4.92,4.92,0,0,1,.79-2.42" style="fill: none; stroke: rgb(0, 0, 0); stroke-linecap: round; stroke-linejoin: round; stroke-width: 2;"></path><line id="primary-4" data-name="primary" x1="3" y1="5" x2="20.95" y2="3" style="fill: none; stroke: rgb(0, 0, 0); stroke-linecap: round; stroke-linejoin: round; stroke-width: 2;"></line></svg>