<?xml version="1.0" encoding="iso-8859-1"?>
<!-- Uploaded to: SVG Repo, www.svgrepo.com, Generator: SVG Repo Mixer Tools -->
<svg fill="#000000" height="800px" width="800px" version="1.1" id="Layer_1" xmlns="http://www.w3.org/2000/svg" xmlns:xlink="http://www.w3.org/1999/xlink" 
	 viewBox="0 0 512 512" xml:space="preserve">
<g>
	<g>
		<path d="M476.968,240.435c-4.329,0-7.837,3.509-7.837,7.837v5.498c0,4.328,3.508,7.837,7.837,7.837
			c4.328,0,7.837-3.509,7.837-7.837v-5.498C484.804,243.944,481.297,240.435,476.968,240.435z"/>
	</g>
</g>
<g>
	<g>
		<path d="M216.794,240.435c-4.328,0-7.837,3.509-7.837,7.837v5.498c0,4.328,3.509,7.837,7.837,7.837
			c4.328,0,7.837-3.509,7.837-7.837v-5.498C224.631,243.944,221.122,240.435,216.794,240.435z"/>
	</g>
</g>
<g>
	<g>
		<path d="M216.794,169.744H190.05c-4.328,0-7.837,3.509-7.837,7.837c0,4.328,3.509,7.837,7.837,7.837h18.907v38.117
			c0,4.328,3.509,7.837,7.837,7.837c4.328,0,7.837-3.509,7.837-7.837V177.58C224.631,173.252,221.122,169.744,216.794,169.744z"/>
	</g>
</g>
<g>
	<g>
		<path d="M476.968,169.744h-26.745c-4.329,0-7.837,3.509-7.837,7.837c0,4.328,3.508,7.837,7.837,7.837h18.909v38.117
			c0,4.328,3.508,7.837,7.837,7.837c4.329,0,7.837-3.509,7.837-7.837V177.58C484.804,173.252,481.297,169.744,476.968,169.744z"/>
	</g>
</g>
<g>
	<g>
		<ellipse cx="338.066" cy="319.06" rx="14.277" ry="14.431"/>
	</g>
</g>
<g>
	<g>
		<ellipse cx="372.057" cy="368.536" rx="14.277" ry="14.431"/>
	</g>
</g>
<g>
	<g>
		<ellipse cx="329.906" cy="413.884" rx="14.277" ry="14.431"/>
	</g>
</g>
<g>
	<g>
		<ellipse cx="436.652" cy="413.884" rx="14.277" ry="14.431"/>
	</g>
</g>
<g>
	<g>
		<ellipse cx="419.652" cy="334.169" rx="14.279" ry="14.431"/>
	</g>
</g>
<g>
	<g>
		<path d="M84.403,57.408H74.188c-4.328,0-7.837,3.509-7.837,7.837c0,4.328,3.509,7.837,7.837,7.837h10.215
			c4.328,0,7.837-3.509,7.837-7.837C92.239,60.916,88.731,57.408,84.403,57.408z"/>
	</g>
</g>
<g>
	<g>
		<path d="M131.021,57.408h-10.214c-4.328,0-7.837,3.509-7.837,7.837c0,4.328,3.509,7.837,7.837,7.837h10.214
			c4.328,0,7.837-3.509,7.837-7.837C138.858,60.916,135.349,57.408,131.021,57.408z"/>
	</g>
</g>
<g>
	<g>
		<path d="M177.639,57.408h-10.215c-4.328,0-7.837,3.509-7.837,7.837c0,4.328,3.509,7.837,7.837,7.837h10.215
			c4.328,0,7.837-3.509,7.837-7.837C185.476,60.916,181.967,57.408,177.639,57.408z"/>
	</g>
</g>
<g>
	<g>
		<path d="M395.875,57.408h-19.578c-4.328,0-7.837,3.509-7.837,7.837c0,4.328,3.509,7.837,7.837,7.837h19.578
			c4.329,0,7.837-3.509,7.837-7.837C403.712,60.916,400.204,57.408,395.875,57.408z"/>
	</g>
</g>
<g>
	<g>
		<path d="M243.99,198.008c4.328,0,7.837-3.509,7.837-7.837V172.47c0-16.336-12.932-29.676-29.017-30.189v-16.863
			c10.665-1.138,19.004-10.237,19.004-21.262V67.576c0-22.996-18.571-41.704-41.397-41.704H51.41
			c-22.827,0-41.397,18.708-41.397,41.704v36.58c0,11.025,8.338,20.124,19.004,21.262v16.863C12.932,142.794,0,156.134,0,172.47
			v283.445c0,16.66,13.448,30.213,29.976,30.213h191.875c16.528,0,29.976-13.553,29.976-30.213V229.878
			c0-4.328-3.509-7.837-7.837-7.837c-4.328,0-7.837,3.509-7.837,7.837v226.038c0,8.018-6.416,14.54-14.303,14.54H29.976
			c-7.886,0-14.303-6.522-14.303-14.54V172.47c0-8.018,6.417-14.541,14.303-14.541h191.875c7.886,0,14.303,6.523,14.303,14.541
			v17.702C236.153,194.499,239.662,198.008,243.99,198.008z M220.554,109.868H99.265c-4.328,0-7.837,3.509-7.837,7.837
			c0,4.328,3.509,7.837,7.837,7.837h107.871v16.714H44.69v-16.714h15.915c4.328,0,7.837-3.509,7.837-7.837
			c0-4.328-3.509-7.837-7.837-7.837H31.274c-3.08,0-5.587-2.563-5.587-5.712v-36.58c0-14.353,11.539-26.03,25.723-26.03h149.007
			c14.183,0,25.723,11.678,25.723,26.03v36.58C226.14,107.305,223.633,109.868,220.554,109.868z"/>
	</g>
</g>
<g>
	<g>
		<path d="M504.163,193.829c4.329,0,7.837-3.509,7.837-7.837V172.47c0-16.336-12.931-29.676-29.017-30.19v-16.863
			c10.664-1.138,19.001-10.237,19.001-21.262v-36.58c0-22.996-18.57-41.704-41.396-41.704H311.583
			c-22.827,0-41.398,18.708-41.398,41.704v36.58c0,11.025,8.338,20.124,19.005,21.262v16.863
			c-16.086,0.513-29.018,13.853-29.018,30.19v283.445c0,16.66,13.447,30.213,29.976,30.213h191.876
			c16.528,0,29.976-13.553,29.976-30.213V224.653c0-4.328-3.508-7.837-7.837-7.837c-4.329,0-7.837,3.509-7.837,7.837v231.262
			c0,8.018-6.417,14.54-14.303,14.54H290.149c-7.886,0-14.303-6.522-14.303-14.54V172.47c0-8.018,6.417-14.541,14.303-14.541
			h191.876c7.886,0,14.302,6.523,14.302,14.541v13.522C496.327,190.32,499.834,193.829,504.163,193.829z M480.726,109.868H371.984
			c-4.329,0-7.837,3.509-7.837,7.837c0,4.328,3.508,7.837,7.837,7.837h95.326v16.714H304.865v-16.714h28.458
			c4.329,0,7.837-3.509,7.837-7.837c0-4.328-3.508-7.837-7.837-7.837h-41.874c-3.081,0-5.589-2.563-5.589-5.712v-36.58
			c0-14.353,11.54-26.03,25.724-26.03h149.006c14.183,0,25.722,11.678,25.722,26.03v36.58
			C486.312,107.305,483.807,109.868,480.726,109.868z"/>
	</g>
</g>
<g>
	<g>
		<path d="M446.28,264.997c-10.783,0-20.76,4.939-27.492,12.846c-6.615-8.035-16.587-13.056-27.488-13.056
			c-8.259,0-16.002,2.824-22.161,7.751c-6.821-14.082-21.204-23.856-37.616-23.856c-21.75,0-39.845,16.857-41.674,38.583
			c-0.104,0.511-0.158,1.035-0.158,1.565v159.625c0,4.328,3.508,7.837,7.837,7.837h177.118c4.329,0,7.837-3.509,7.837-7.837V301.502
			C482.482,281.373,466.242,264.997,446.28,264.997z M305.365,440.618V289.846c0.023-0.184,0.042-0.37,0.052-0.556
			c0.811-13.982,12.279-24.934,26.106-24.934c14.134,0,25.862,11.659,26.142,25.989c0.073,3.724,2.759,6.883,6.422,7.555
			c3.663,0.673,7.294-1.328,8.684-4.785c3.092-7.687,10.365-12.655,18.529-12.655c9.51,0,17.762,6.858,19.623,16.306
			c0.717,3.641,3.891,6.28,7.602,6.322c0.029,0,0.059,0,0.088,0c3.674,0,6.86-2.556,7.652-6.151
			c2.076-9.426,10.494-16.267,20.014-16.267c11.319,0,20.528,9.346,20.528,20.833v139.116H305.365z"/>
	</g>
</g>
<g>
	<g>
		<path d="M214.472,280.993H37.355c-4.328,0-7.837,3.509-7.837,7.837v159.625c0,4.328,3.509,7.837,7.837,7.837h177.116
			c4.328,0,7.837-3.509,7.837-7.837V288.83C222.308,284.502,218.8,280.993,214.472,280.993z M206.635,310.53h-7.191
			c-4.328,0-7.837,3.509-7.837,7.837c0,4.328,3.509,7.837,7.837,7.837h7.191v51.672h-7.191c-4.328,0-7.837,3.509-7.837,7.837
			c0,4.328,3.509,7.837,7.837,7.837h7.191v47.068H45.192v-47.068h7.192c4.328,0,7.837-3.509,7.837-7.837
			c0-4.328-3.509-7.837-7.837-7.837h-7.192v-51.672h7.192c4.328,0,7.837-3.509,7.837-7.837c0-4.328-3.509-7.837-7.837-7.837h-7.192
			v-13.864h161.443V310.53z"/>
	</g>
</g>
<g>
	<g>
		<path d="M105.266,310.53H93.678c-4.328,0-7.837,3.509-7.837,7.837c0,4.328,3.509,7.837,7.837,7.837h11.588
			c4.328,0,7.837-3.509,7.837-7.837C113.103,314.039,109.594,310.53,105.266,310.53z"/>
	</g>
</g>
<g>
	<g>
		<path d="M158.148,310.53h-11.588c-4.328,0-7.837,3.509-7.837,7.837c0,4.328,3.509,7.837,7.837,7.837h11.588
			c4.328,0,7.837-3.509,7.837-7.837C165.985,314.039,162.476,310.53,158.148,310.53z"/>
	</g>
</g>
<g>
	<g>
		<path d="M78.331,344.891H66.743c-4.328,0-7.837,3.509-7.837,7.837c0,4.328,3.509,7.837,7.837,7.837h11.588
			c4.328,0,7.837-3.509,7.837-7.837C86.168,348.399,82.659,344.891,78.331,344.891z"/>
	</g>
</g>
<g>
	<g>
		<path d="M131.212,344.891h-11.587c-4.328,0-7.837,3.509-7.837,7.837c0,4.328,3.509,7.837,7.837,7.837h11.587
			c4.328,0,7.837-3.509,7.837-7.837C139.049,348.399,135.54,344.891,131.212,344.891z"/>
	</g>
</g>
<g>
	<g>
		<path d="M184.095,344.891h-11.587c-4.328,0-7.837,3.509-7.837,7.837c0,4.328,3.509,7.837,7.837,7.837h11.587
			c4.328,0,7.837-3.509,7.837-7.837C191.932,348.399,188.423,344.891,184.095,344.891z"/>
	</g>
</g>
<g>
	<g>
		<path d="M105.266,377.876H93.678c-4.328,0-7.837,3.509-7.837,7.837c0,4.328,3.509,7.837,7.837,7.837h11.588
			c4.328,0,7.837-3.509,7.837-7.837C113.103,381.385,109.594,377.876,105.266,377.876z"/>
	</g>
</g>
<g>
	<g>
		<path d="M158.147,377.876h-11.588c-4.328,0-7.837,3.509-7.837,7.837c0,4.328,3.509,7.837,7.837,7.837h11.588
			c4.328,0,7.837-3.509,7.837-7.837C165.984,381.385,162.476,377.876,158.147,377.876z"/>
	</g>
</g>
<g>
	<g>
		<path d="M78.331,412.235H66.743c-4.328,0-7.837,3.509-7.837,7.837c0,4.328,3.509,7.837,7.837,7.837h11.588
			c4.328,0,7.837-3.509,7.837-7.837C86.168,415.744,82.659,412.235,78.331,412.235z"/>
	</g>
</g>
<g>
	<g>
		<path d="M131.212,412.235h-11.587c-4.328,0-7.837,3.509-7.837,7.837c0,4.328,3.509,7.837,7.837,7.837h11.587
			c4.328,0,7.837-3.509,7.837-7.837C139.049,415.744,135.54,412.235,131.212,412.235z"/>
	</g>
</g>
<g>
	<g>
		<path d="M184.095,412.235h-11.587c-4.328,0-7.837,3.509-7.837,7.837c0,4.328,3.509,7.837,7.837,7.837h11.587
			c4.328,0,7.837-3.509,7.837-7.837C191.932,415.744,188.423,412.235,184.095,412.235z"/>
	</g>
</g>
</svg>